<svg xmlns="http://www.w3.org/2000/svg" xmlns:xlink="http://www.w3.org/1999/xlink" width="377" height="377" viewBox="0 0 377 377"><defs><clipPath id="b"><rect width="377" height="377"/></clipPath></defs><g id="a" clip-path="url(#b)"><g transform="translate(-164 9.449)"><g transform="translate(190.874 -14)"><path d="M1589.6,770.766c-12.151-1.782-26.328-7.372-37.264-14.744-11.909-8.1-24.465-23.9-29.649-37.426-5.023-12.961-5.833-17.417-5.833-32-.081-11.908.162-14.258,2.106-21.224,6.4-23.9,22.521-43.988,43.988-54.762,2.673-1.377,16.769-6.886,31.189-12.313,34.51-13.042,43.826-17.741,51.522-26.247,5.833-6.4,9.073-5.023,12.152,5.266,4.05,13.448,3.321,28.677-1.782,38.722l-1.863,3.726,6.238,6.157c18.227,17.822,27.138,40.667,25.761,65.942-2.187,40.343-30.784,72.179-70.8,78.66A94.671,94.671,0,0,1,1589.6,770.766Zm-8.506-12.718c0-.405-1.215-1.215-2.592-1.944-8.83-4.213-19.361-15.149-24.87-25.761-5.671-10.855-6.967-16.526-6.967-29.973,0-10.045.243-12.637,1.863-17.822,8.344-26.49,29.974-43.907,60.838-48.605,20.738-3.24,34.186-12.395,38.965-26.733,1.458-4.374,1.7-6.643,1.458-13.529-.162-4.536-.486-8.506-.81-8.749-.324-.324-2.673.891-5.266,2.673-8.344,5.671-18.713,10.288-45.608,20.414-14.5,5.428-29.082,11.341-32.4,13.124-17.984,9.64-30.945,26.166-36.616,46.9-1.62,5.752-1.863,8.668-1.782,18.956.081,10.693.324,13.042,2.187,19.118,2.835,9.316,5.427,15.149,9.883,21.792,7.777,11.665,20.171,21.71,34.429,27.786C1581.658,759.1,1581.09,758.939,1581.09,758.048Zm37.993-.243c25.356-4.051,47.067-25.032,54.438-52.575,2.592-9.64,2.592-27.3,0-36.859-3.565-13.286-11.827-27.057-21.467-35.887l-4.7-4.213-3.322,2.916c-4.617,3.888-15.149,8.992-22.2,10.693-3.24.729-5.914,1.62-5.914,1.863s1.458.891,3.159,1.458c4.456,1.3,12.313,6.724,16.526,11.341a44.956,44.956,0,0,1-6.076,65.942c-25.437,19.766-62.782,6.4-70.8-25.356-1.3-5.023-1.215-14.582,0-21.467.972-4.861-2.754,4.293-4.537,11.1-2.349,9.4-1.782,22.683,1.3,31.837C1564.646,745.572,1591.784,762.26,1619.084,757.8Zm-7.7-33.619c10.612-2.754,20.5-10.45,25.113-19.6,10.369-20.414.891-45.527-20.333-53.628-6.319-2.511-17.012-3.078-23.007-1.377-10.612,3.078-21.143,11.989-25.761,21.629-2.835,5.914-2.916,6.319-2.916,15.392,0,7.858.324,10.045,1.944,14.015C1573.556,718.6,1593.242,728.884,1611.388,724.186Z" transform="translate(-1452.711 -533.625)" fill="#fff" opacity="0.43"/><g transform="translate(145.194 152.922)"><rect width="17.312" height="48.935" transform="translate(67.417 72.476) rotate(-45)" fill="#fff"/><path d="M90.968,45.243a20.22,20.22,0,0,0,20.2-20.2,19.938,19.938,0,0,0-2.366-9.233L93.219,31.394l-8.6-8.6L100.2,7.215a19.938,19.938,0,0,0-9.233-2.366,20.22,20.22,0,0,0-20.2,20.2,19.679,19.679,0,0,0,1.212,6.694L61.307,42.416,51.035,32.144l4.1-4.1L47,19.91,59.23,7.676a17.31,17.31,0,0,0-24.468,0L14.334,28.1l8.137,8.137H6.2l-4.1,4.1L22.528,60.767l4.1-4.1V40.338l8.137,8.137,4.1-4.1L49.131,54.65,6.37,97.41,18.6,109.644l65.67-65.613A19.68,19.68,0,0,0,90.968,45.243Z" transform="translate(-2.1 -2.613)" fill="#fff"/></g></g><text transform="translate(353 326)" fill="#fff" font-size="56" font-family="Ubuntu-Medium, Ubuntu" font-weight="500"><tspan x="-152.432" y="0">OpenWilma</tspan></text></g></g></svg>